<svg xmlns="http://www.w3.org/2000/svg" width="25" height="17" viewBox="0 0 25 17"><path fill="#fff" d="M10.15 7.53s2.27-.18 2.27-3.01c0-2.84-1.85-4.22-4.2-4.22H.49v15.83h7.73s4.72.16 4.72-4.67c0 0 .2-3.93-2.79-3.93zM3.9 3.11h4.33s1.05 0 1.05 1.65-.62 1.89-1.32 1.89H3.89zM8 13.32H3.9V9.09h4.33s1.56-.02 1.56 2.17c0 1.85-1.17 2.05-1.78 2.06zm11.24-8.99c-5.71 0-5.7 6.08-5.7 6.08s-.4 6.05 5.7 6.05c0 0 5.08.31 5.08-4.21H21.7s.08 1.7-2.38 1.7c0 0-2.62.19-2.62-2.75h7.7s.84-6.87-5.17-6.87zm2.32 4.76h-4.88S17 6.65 19.3 6.65c2.29 0 2.26 2.44 2.26 2.44zm.61-7.86v1.95h-6.13V1.23z"/></svg>